<?xml version="1.0" encoding="UTF-8" standalone="no"?>
<!-- Created with Inkscape (http://www.inkscape.org/) -->

<svg
   width="744.09448819"
   height="1052.3622047"
   id="svg2"
   version="1.1"
   inkscape:version="1.3.2 (091e20ef0f, 2023-11-25, custom)"
   sodipodi:docname="beatdroid.svg"
   xmlns:inkscape="http://www.inkscape.org/namespaces/inkscape"
   xmlns:sodipodi="http://sodipodi.sourceforge.net/DTD/sodipodi-0.dtd"
   xmlns:xlink="http://www.w3.org/1999/xlink"
   xmlns="http://www.w3.org/2000/svg"
   xmlns:svg="http://www.w3.org/2000/svg"
   xmlns:rdf="http://www.w3.org/1999/02/22-rdf-syntax-ns#"
   xmlns:cc="http://creativecommons.org/ns#"
   xmlns:dc="http://purl.org/dc/elements/1.1/">
  <defs
     id="defs4">
    <linearGradient
       id="linearGradient3691">
      <stop
         style="stop-color:#0000a9;stop-opacity:0.63865548;"
         offset="0"
         id="stop3693" />
      <stop
         id="stop3699"
         offset="0.29999992"
         style="stop-color:#0000a9;stop-opacity:0.31764706;" />
      <stop
         style="stop-color:#0000a9;stop-opacity:0;"
         offset="1"
         id="stop3695" />
    </linearGradient>
    <radialGradient
       inkscape:collect="always"
       xlink:href="#linearGradient3691"
       id="radialGradient3749"
       gradientUnits="userSpaceOnUse"
       gradientTransform="matrix(6.3091884,0,0,6.4894484,-800.81535,-3468.0609)"
       cx="176"
       cy="592.36218"
       fx="176"
       fy="592.36218"
       r="20" />
    <radialGradient
       inkscape:collect="always"
       xlink:href="#linearGradient3691"
       id="radialGradient3110"
       gradientUnits="userSpaceOnUse"
       gradientTransform="matrix(9.5008958,0,0,9.7723458,-1313.0465,-5372.9519)"
       cx="176"
       cy="592.36218"
       fx="176"
       fy="592.36218"
       r="20" />
  </defs>
  <sodipodi:namedview
     id="base"
     pagecolor="#ffffff"
     bordercolor="#666666"
     borderopacity="1.0"
     inkscape:pageopacity="0.0"
     inkscape:pageshadow="2"
     inkscape:zoom="0.26878307"
     inkscape:cx="-16.742126"
     inkscape:cy="446.45669"
     inkscape:document-units="px"
     inkscape:current-layer="layer1"
     showgrid="true"
     inkscape:window-width="1431"
     inkscape:window-height="1045"
     inkscape:window-x="308"
     inkscape:window-y="41"
     inkscape:window-maximized="0"
     inkscape:showpageshadow="0"
     inkscape:pagecheckerboard="true"
     inkscape:deskcolor="#d1d1d1">
    <inkscape:grid
       type="xygrid"
       id="grid3604"
       empspacing="5"
       visible="true"
       enabled="true"
       snapvisiblegridlinesonly="true"
       spacingx="4px"
       spacingy="4px"
       originx="0"
       originy="0"
       units="px" />
  </sodipodi:namedview>
  <metadata
     id="metadata7">
    <rdf:RDF>
      <cc:Work
         rdf:about="">
        <dc:format>image/svg+xml</dc:format>
        <dc:type
           rdf:resource="http://purl.org/dc/dcmitype/StillImage" />
      </cc:Work>
    </rdf:RDF>
  </metadata>
  <g
     inkscape:label="Layer 1"
     inkscape:groupmode="layer"
     id="layer1">
    <g
       id="g1"
       transform="translate(-27.8223,-355.01174)">
      <rect
         y="240.04271"
         x="139.60179"
         height="340"
         width="340"
         id="rect3741"
         style="display:inline;fill:#dddddd;fill-opacity:1;stroke:none;stroke-width:8.38111" />
      <ellipse
         id="path3743"
         style="display:inline;fill:url(#radialGradient3749);fill-opacity:1;stroke:none;stroke-width:6.70489"
         cx="309.60181"
         cy="376.04294"
         rx="132.22227"
         ry="136" />
      <path
         sodipodi:nodetypes="ccccccccccc"
         id="path3745"
         d="m 177.37957,471.78988 79.90485,-0.40545 11.49598,-29.56104 11.49582,29.56104 c 17.24393,0 15.3191,14.29564 17.24393,23.6487 l 11.49598,-206.92689 11.4959,277.87333 c 0,0 5.74795,-82.77079 11.49599,-88.68296 5.74795,-5.91218 19.15983,-3.94154 28.73983,-5.91218 5.74803,-11.82444 28.73983,-11.82444 34.48787,0 h 46.58838"
         style="display:inline;fill:none;stroke:#555555;stroke-width:4.37213;stroke-linecap:round;stroke-linejoin:round;stroke-miterlimit:4;stroke-dasharray:none;stroke-opacity:0.826291" />
      <path
         id="path3747"
         d="m 268.00888,312.01564 c -20.0815,13.83638 -33.30241,37.328 -33.30241,64.02735 0,26.69935 13.22099,50.19097 33.30241,64.02736 l 3.37233,-5.05861 c -18.48434,-12.71285 -30.77308,-34.35147 -30.77308,-58.96875 0,-24.6188 12.28692,-46.25615 30.77308,-58.96875 z m 83.18583,0 -3.37241,5.0586 c 18.48616,12.7126 30.77316,34.34995 30.77316,58.96875 0,24.61728 -12.28882,46.2559 -30.77316,58.96875 l 3.37241,5.05861 c 20.08142,-13.83639 33.30241,-37.32801 33.30241,-64.02736 0,-26.69935 -13.22107,-50.19097 -33.30241,-64.02735 z m -72.78762,15.89848 c -15.09788,10.37111 -25.01191,28.07525 -25.01191,48.12887 0,20.05363 9.91403,37.75777 25.01191,48.12887 l 2.52933,-3.90226 c -13.89598,-9.52918 -23.04469,-25.73775 -23.04469,-44.22661 0,-18.48886 9.14871,-34.69742 23.04469,-44.22652 z m 62.38941,0 -2.52933,3.90235 c 13.89598,9.5291 23.04469,25.73766 23.04469,44.22652 0,18.48886 -9.14871,34.69743 -23.04469,44.22661 l 2.52933,3.90226 c 15.09788,-10.3711 25.01191,-28.07524 25.01191,-48.12887 0,-20.05362 -9.91403,-37.75776 -25.01191,-48.12887 z m -51.99112,16.0429 c -10.05724,6.91543 -16.72149,18.72329 -16.72149,32.08597 0,13.36353 6.66309,25.17071 16.72149,32.08597 l 1.68617,-2.6016 c -9.25887,-6.35366 -15.3163,-17.16251 -15.3163,-29.48437 0,-12.29593 6.09024,-23.12527 15.3163,-29.48438 z m 41.59283,0 -1.68616,2.60159 c 9.22605,6.35911 15.31629,17.18845 15.31629,29.48438 0,12.32186 -6.05743,23.13071 -15.31629,29.48437 l 1.68616,2.6016 c 10.05831,-6.91526 16.72149,-18.72244 16.72149,-32.08597 0,-13.36268 -6.66425,-25.17054 -16.72149,-32.08597 z m -31.33519,16.04299 c -4.98412,3.46494 -8.14993,9.39683 -8.14993,16.04298 0,6.71475 3.21961,12.5925 8.2905,16.04299 l 0.84308,-1.30076 c -4.67199,-3.16956 -7.72839,-8.54768 -7.72839,-14.74223 0,-6.17117 3.08598,-11.56756 7.72839,-14.74214 l -0.84308,-1.30084 c -0.0331,0.0255 -0.10661,-0.0255 -0.14049,0 z m 20.93698,0 -0.84308,1.30084 c 4.64241,3.17458 7.72839,8.57097 7.72839,14.74214 0,6.19455 -3.0564,11.57267 -7.72839,14.74223 L 320,392.08598 c 5.07089,-3.45049 8.29051,-9.32824 8.29051,-16.04299 0,-6.69162 -3.24895,-12.58748 -8.29051,-16.04298 z"
         style="color:#000000;font-style:normal;font-variant:normal;font-weight:normal;font-stretch:normal;font-size:medium;line-height:normal;font-family:'Bitstream Vera Sans';-inkscape-font-specification:'Bitstream Vera Sans';text-indent:0;text-align:start;text-decoration:none;text-decoration-line:none;letter-spacing:normal;word-spacing:normal;text-transform:none;writing-mode:lr-tb;direction:ltr;text-anchor:start;display:inline;overflow:visible;visibility:visible;fill:#2a4bb0;fill-opacity:1;stroke:none;stroke-width:8.38111;marker:none;enable-background:accumulate" />
    </g>
    <g
       id="g2"
       transform="translate(-8.0658,240.61056)">
      <rect
         inkscape:export-ydpi="90"
         inkscape:export-xdpi="90"
         inkscape:export-filename="/home/gary/Desktop/AndroidApps/beatdroid_images/beatdroid_hires.png"
         y="211.01602"
         x="103.11115"
         height="512"
         width="512"
         id="rect3100"
         style="fill:#000000;fill-opacity:0.227273;stroke:none" />
      <path
         inkscape:connector-curvature="0"
         style="fill:none;stroke:#ffffff;stroke-width:22.5882;stroke-linecap:round;stroke-linejoin:round;stroke-miterlimit:4;stroke-dasharray:none;stroke-opacity:1"
         d="m 160,560 120.3274,-0.61056 17.3114,-44.51545 17.3115,44.51545 c 25.9673,0 23.0688,21.52755 25.9673,35.61216 l 17.3116,-311.60756 17.3115,418.4446 c 0,0 8.6557,-124.64312 17.3116,-133.54615 8.6557,-8.90305 28.8524,-5.9355 43.2788,-8.90305 8.6558,-17.80622 43.2787,-17.80622 51.9347,0 h 70.1565"
         id="path3102"
         sodipodi:nodetypes="ccccccccccc" />
      <path
         inkscape:connector-curvature="0"
         sodipodi:nodetypes="ccccccccccc"
         id="path3104"
         d="m 160,560 120.3274,-0.61056 17.3114,-44.51545 17.3115,44.51545 c 25.9673,0 23.0688,21.52755 25.9673,35.61216 l 17.3116,-311.60756 17.3115,418.4446 c 0,0 8.6557,-124.64312 17.3116,-133.54615 8.6557,-8.90305 28.8524,-5.9355 43.2788,-8.90305 8.6558,-17.80622 43.2787,-17.80622 51.9347,0 h 70.1565"
         style="fill:none;stroke:#555555;stroke-width:6.58372;stroke-linecap:round;stroke-linejoin:round;stroke-miterlimit:4;stroke-dasharray:none;stroke-opacity:1" />
      <ellipse
         id="path3106"
         style="fill:url(#radialGradient3110);fill-opacity:1;stroke:none;stroke-width:10.0968"
         cx="359.11111"
         cy="415.81616"
         rx="199.11119"
         ry="204.8" />
      <path
         inkscape:connector-curvature="0"
         id="path3108"
         d="m 296.4771,319.39878 c -30.2404,20.83596 -50.1495,56.21158 -50.1495,96.41766 0,40.20608 19.9092,75.5817 50.1495,96.41768 l 5.0784,-7.61768 c -27.8353,-19.14405 -46.3407,-51.72927 -46.3407,-88.8 0,-37.07302 18.5027,-69.65632 46.3407,-88.8 z m 125.268,0 -5.0784,7.61766 c 27.838,19.14368 46.3408,51.72698 46.3408,88.8 0,37.07073 -18.5055,69.65595 -46.3408,88.8 l 5.0784,7.61768 c 30.2404,-20.83598 50.1496,-56.2116 50.1496,-96.41768 0,-40.20608 -19.9094,-75.5817 -50.1496,-96.41766 z m -109.6096,23.94124 c -22.7356,15.61768 -37.665,42.27803 -37.665,72.47642 0,30.19841 14.9294,56.85876 37.665,72.47642 l 3.809,-5.87634 c -20.9257,-14.34983 -34.7026,-38.75803 -34.7026,-66.60008 0,-27.84205 13.7769,-52.25023 34.7026,-66.59994 z m 93.9511,0 -3.8088,5.87648 c 20.9257,14.34971 34.7026,38.75789 34.7026,66.59994 0,27.84205 -13.7769,52.25025 -34.7026,66.60008 l 3.8088,5.87634 c 22.7357,-15.61767 37.665,-42.27801 37.665,-72.47642 0,-30.19839 -14.9293,-56.85874 -37.665,-72.47642 z m -78.2925,24.15872 c -15.1449,10.41383 -25.1806,28.19508 -25.1806,48.3177 0,20.12391 10.0339,37.90413 25.1806,48.3177 l 2.5393,-3.9177 c -13.9429,-9.56787 -23.0646,-25.84474 -23.0646,-44.4 0,-18.51622 9.1711,-34.82393 23.0646,-44.40001 z m 62.6341,0 -2.5393,3.91769 c 13.8933,9.57608 23.0646,25.88379 23.0646,44.40001 0,18.55526 -9.1217,34.83213 -23.0646,44.4 l 2.5393,3.9177 c 15.1466,-10.41357 25.1804,-28.19379 25.1804,-48.3177 0,-20.12262 -10.0355,-37.90387 -25.1804,-48.3177 z M 343.241,391.6576 c -7.5056,5.21779 -12.2729,14.15052 -12.2729,24.15884 0,10.11163 4.8483,18.96283 12.4845,24.15886 l 1.2696,-1.95879 c -7.0355,-4.77299 -11.638,-12.8718 -11.638,-22.20007 0,-9.29305 4.6471,-17.41938 11.638,-22.19993 l -1.2696,-1.95891 c -0.05,0.0384 -0.1605,-0.0384 -0.2116,0 z m 31.5285,0 -1.2694,1.95891 c 6.9909,4.78055 11.638,12.90688 11.638,22.19993 0,9.32827 -4.6025,17.42708 -11.638,22.20007 l 1.2694,1.95879 c 7.6362,-5.19603 12.4846,-14.04725 12.4846,-24.15886 0,-10.07679 -4.8925,-18.95526 -12.4846,-24.15885 z"
         style="color:#000000;font-style:normal;font-variant:normal;font-weight:normal;font-stretch:normal;font-size:medium;line-height:normal;font-family:'Bitstream Vera Sans';-inkscape-font-specification:'Bitstream Vera Sans';text-indent:0;text-align:start;text-decoration:none;text-decoration-line:none;letter-spacing:normal;word-spacing:normal;text-transform:none;writing-mode:lr-tb;direction:ltr;text-anchor:start;display:inline;overflow:visible;visibility:visible;fill:#2a4bb0;fill-opacity:1;stroke:none;stroke-width:1;marker:none;enable-background:accumulate" />
    </g>
  </g>
</svg>
